<mxfile host="app.diagrams.net" modified="2020-09-27T03:12:29.392Z" agent="5.0 (Windows NT 10.0; Win64; x64) AppleWebKit/537.36 (KHTML, like Gecko) Chrome/85.0.4183.121 Safari/537.36" etag="58FGHasxQVQurNa-RWel" version="13.7.5" type="github">
  <diagram name="Page-1" id="822b0af5-4adb-64df-f703-e8dfc1f81529">
    <mxGraphModel dx="1483" dy="781" grid="1" gridSize="10" guides="1" tooltips="1" connect="1" arrows="1" fold="1" page="1" pageScale="1" pageWidth="1100" pageHeight="850" background="#ffffff" math="0" shadow="0">
      <root>
        <mxCell id="0" />
        <mxCell id="1" parent="0" />
        <mxCell id="29rWYrH1ItWvYvGDokd7-4" value="" style="rounded=0;whiteSpace=wrap;html=1;fillColor=#fff2cc;" vertex="1" parent="1">
          <mxGeometry x="70" y="260" width="140" height="129" as="geometry" />
        </mxCell>
        <mxCell id="29rWYrH1ItWvYvGDokd7-5" value="操作系统" style="rounded=1;whiteSpace=wrap;html=1;fontSize=22;fillColor=#d5e8d4;" vertex="1" parent="1">
          <mxGeometry x="80" y="330" width="120" height="50" as="geometry" />
        </mxCell>
        <mxCell id="29rWYrH1ItWvYvGDokd7-6" value="应用程序" style="rounded=1;whiteSpace=wrap;html=1;" vertex="1" parent="1">
          <mxGeometry x="80" y="270" width="120" height="50" as="geometry" />
        </mxCell>
        <mxCell id="29rWYrH1ItWvYvGDokd7-7" value="" style="rounded=0;whiteSpace=wrap;html=1;fillColor=#fff2cc;" vertex="1" parent="1">
          <mxGeometry x="290" y="260" width="140" height="129" as="geometry" />
        </mxCell>
        <mxCell id="29rWYrH1ItWvYvGDokd7-8" value="操作系统" style="rounded=1;whiteSpace=wrap;html=1;fontSize=22;fillColor=#d5e8d4;" vertex="1" parent="1">
          <mxGeometry x="300" y="330" width="120" height="50" as="geometry" />
        </mxCell>
        <mxCell id="29rWYrH1ItWvYvGDokd7-9" value="应用程序" style="rounded=1;whiteSpace=wrap;html=1;" vertex="1" parent="1">
          <mxGeometry x="300" y="270" width="120" height="50" as="geometry" />
        </mxCell>
        <mxCell id="29rWYrH1ItWvYvGDokd7-10" value="…" style="text;html=1;fillColor=none;align=center;verticalAlign=middle;whiteSpace=wrap;rounded=0;fontStyle=1;fontSize=22;" vertex="1" parent="1">
          <mxGeometry x="230" y="320" width="40" height="20" as="geometry" />
        </mxCell>
        <mxCell id="29rWYrH1ItWvYvGDokd7-13" value="应用程序" style="rounded=1;whiteSpace=wrap;html=1;" vertex="1" parent="1">
          <mxGeometry x="80" y="270" width="120" height="50" as="geometry" />
        </mxCell>
        <mxCell id="29rWYrH1ItWvYvGDokd7-14" value="硬件资源" style="rounded=0;whiteSpace=wrap;html=1;fontSize=25;fillColor=#dae8fc;" vertex="1" parent="1">
          <mxGeometry x="70" y="461" width="360" height="60" as="geometry" />
        </mxCell>
        <mxCell id="29rWYrH1ItWvYvGDokd7-15" value="Hypervisor" style="rounded=0;whiteSpace=wrap;html=1;fontSize=25;fillColor=#ffe6cc;" vertex="1" parent="1">
          <mxGeometry x="70" y="395" width="360" height="63" as="geometry" />
        </mxCell>
        <mxCell id="29rWYrH1ItWvYvGDokd7-16" value="应用程序" style="rounded=1;whiteSpace=wrap;html=1;fontSize=22;" vertex="1" parent="1">
          <mxGeometry x="80" y="270" width="120" height="50" as="geometry" />
        </mxCell>
        <mxCell id="29rWYrH1ItWvYvGDokd7-17" value="应用程序" style="rounded=1;whiteSpace=wrap;html=1;fontSize=22;" vertex="1" parent="1">
          <mxGeometry x="300" y="270" width="120" height="50" as="geometry" />
        </mxCell>
        <mxCell id="29rWYrH1ItWvYvGDokd7-18" value="" style="rounded=0;whiteSpace=wrap;html=1;fillColor=#fff2cc;" vertex="1" parent="1">
          <mxGeometry x="490" y="233" width="140" height="129" as="geometry" />
        </mxCell>
        <mxCell id="29rWYrH1ItWvYvGDokd7-19" value="操作系统" style="rounded=1;whiteSpace=wrap;html=1;fontSize=22;fillColor=#d5e8d4;" vertex="1" parent="1">
          <mxGeometry x="500" y="303" width="120" height="50" as="geometry" />
        </mxCell>
        <mxCell id="29rWYrH1ItWvYvGDokd7-20" value="应用程序" style="rounded=1;whiteSpace=wrap;html=1;" vertex="1" parent="1">
          <mxGeometry x="500" y="243" width="120" height="50" as="geometry" />
        </mxCell>
        <mxCell id="29rWYrH1ItWvYvGDokd7-21" value="" style="rounded=0;whiteSpace=wrap;html=1;fillColor=#fff2cc;" vertex="1" parent="1">
          <mxGeometry x="710" y="233" width="140" height="129" as="geometry" />
        </mxCell>
        <mxCell id="29rWYrH1ItWvYvGDokd7-22" value="操作系统" style="rounded=1;whiteSpace=wrap;html=1;fontSize=22;fillColor=#d5e8d4;" vertex="1" parent="1">
          <mxGeometry x="720" y="303" width="120" height="50" as="geometry" />
        </mxCell>
        <mxCell id="29rWYrH1ItWvYvGDokd7-23" value="应用程序" style="rounded=1;whiteSpace=wrap;html=1;" vertex="1" parent="1">
          <mxGeometry x="720" y="243" width="120" height="50" as="geometry" />
        </mxCell>
        <mxCell id="29rWYrH1ItWvYvGDokd7-24" value="…" style="text;html=1;fillColor=none;align=center;verticalAlign=middle;whiteSpace=wrap;rounded=0;fontStyle=1;fontSize=22;" vertex="1" parent="1">
          <mxGeometry x="650" y="293" width="40" height="20" as="geometry" />
        </mxCell>
        <mxCell id="29rWYrH1ItWvYvGDokd7-25" value="应用程序" style="rounded=1;whiteSpace=wrap;html=1;" vertex="1" parent="1">
          <mxGeometry x="500" y="243" width="120" height="50" as="geometry" />
        </mxCell>
        <mxCell id="29rWYrH1ItWvYvGDokd7-26" value="硬件资源" style="rounded=0;whiteSpace=wrap;html=1;fontSize=25;fillColor=#dae8fc;" vertex="1" parent="1">
          <mxGeometry x="490" y="473" width="360" height="48" as="geometry" />
        </mxCell>
        <mxCell id="29rWYrH1ItWvYvGDokd7-27" value="宿主机操作系统" style="rounded=0;whiteSpace=wrap;html=1;fontSize=25;fillColor=#1ba1e2;" vertex="1" parent="1">
          <mxGeometry x="490" y="421" width="360" height="48" as="geometry" />
        </mxCell>
        <mxCell id="29rWYrH1ItWvYvGDokd7-28" value="应用程序" style="rounded=1;whiteSpace=wrap;html=1;fontSize=22;" vertex="1" parent="1">
          <mxGeometry x="500" y="243" width="120" height="50" as="geometry" />
        </mxCell>
        <mxCell id="29rWYrH1ItWvYvGDokd7-29" value="应用程序" style="rounded=1;whiteSpace=wrap;html=1;fontSize=22;" vertex="1" parent="1">
          <mxGeometry x="720" y="243" width="120" height="50" as="geometry" />
        </mxCell>
        <mxCell id="29rWYrH1ItWvYvGDokd7-30" value="Hypervisor" style="rounded=0;whiteSpace=wrap;html=1;fontSize=25;fillColor=#ffe6cc;" vertex="1" parent="1">
          <mxGeometry x="490" y="369" width="360" height="48" as="geometry" />
        </mxCell>
      </root>
    </mxGraphModel>
  </diagram>
</mxfile>
